<?xml version="1.0" encoding="UTF-8"?>
<svg width="19px" height="18px" viewBox="0 0 19 18" version="1.1" xmlns="http://www.w3.org/2000/svg" xmlns:xlink="http://www.w3.org/1999/xlink">
    <!-- Generator: Sketch 55.1 (78136) - https://sketchapp.com -->
    <title>Fill 2</title>
    <desc>Created with Sketch.</desc>
    <g id="Symbols" stroke="none" stroke-width="1" fill="none" fill-rule="evenodd">
        <g id="System-Icons/Navigation/Back" transform="translate(-2.000000, -3.000000)" fill="#333333">
            <g id="Group">
                <path d="M19.5,10.75 L7.018,10.75 L12.384,5.384 C12.872,4.896 12.872,4.104 12.384,3.616 C11.896,3.128 11.104,3.128 10.616,3.616 L3.116,11.116 C2.628,11.604 2.628,12.396 3.116,12.884 L10.616,20.384 C10.86,20.628 11.18,20.75 11.5,20.75 C11.82,20.75 12.14,20.628 12.384,20.384 C12.872,19.896 12.872,19.104 12.384,18.616 L7.018,13.25 L19.5,13.25 C20.19,13.25 20.75,12.69 20.75,12 C20.75,11.31 20.19,10.75 19.5,10.75" id="Fill-2"></path>
            </g>
        </g>
    </g>
</svg>